<svg width="100" height="100" xmlns="http://www.w3.org/2000/svg" stroke="null">
 <g stroke="null">
  <title stroke="null">Layer 1</title>
  <g stroke="null" id="svg_1" fill-rule="evenodd" fill="none">
   <path stroke="null" id="svg_2" fill="#1A1918" d="m89.66884,73.10513l4.63898,0.02556s-8.62479,11.68712 -9.32908,12.63961c-0.2287,0.3084 -0.57608,0.64105 -0.75237,1.05341c-0.44549,1.03652 -0.90289,3.31031 -0.90289,3.31031l-4.24461,0.02122s0.66055,-2.37017 0.63326,-3.63257c-0.02382,-1.10279 -0.58691,-2.20428 -0.90267,-3.31031c-0.31923,-1.11968 -0.75259,-3.31053 -0.75259,-3.31053l4.36394,0l0.60186,2.40764l6.64618,-9.20434"/>
   <path stroke="null" id="svg_3" fill="#1A1918" d="m80.88444,75.56994c0.85611,0.51609 1.38152,3.36316 1.38152,3.36316s-4.47959,0.06605 -6.91733,0.06605l-2.1066,0l-2.55816,11.13486l-3.91217,0s2.43471,-12.10078 3.00949,-14.29466c0.18625,-0.71036 1.27605,-0.58843 3.11626,-0.58843l2.93867,0c1.89761,0 4.11553,-0.24234 5.04831,0.31901m-18.21311,5.42298s0.12193,-0.71469 -0.41365,-1.54243c-0.45762,-0.70559 -0.88015,-0.86976 -2.08408,-0.90744c-3.39911,-0.10677 -3.33305,2.41219 -3.33305,2.41219l5.83078,0.03768zm3.6865,-2.88475c0.49812,1.7969 -0.45134,6.01899 -0.45134,6.01899s-4.95821,-0.08273 -7.67403,0c-0.84442,0.02577 -1.85516,-0.09183 -2.1066,0.30104c-0.35366,0.55053 0.12929,1.39798 0.53862,1.75597c0.47105,0.41214 1.38866,0.45913 1.7185,0.50093c2.20428,0.28003 6.81771,0.07234 6.81771,0.07234l-0.79915,3.5388s-6.51948,0.32702 -9.78042,-0.45134c-0.64387,-0.15333 -1.24746,-0.46325 -1.65526,-0.90267c-0.11132,-0.1202 -0.20791,-0.28414 -0.31316,-0.42578c-0.08403,-0.11305 -0.32919,-0.48447 -0.43921,-0.77815c-0.74479,-1.98467 0.08728,-5.78682 0.90289,-7.82433c0.09464,-0.23606 0.21354,-0.53558 0.33872,-0.79006c0.15637,-0.31728 0.28869,-0.67549 0.41365,-0.86521c0.08403,-0.13081 0.1882,-0.21506 0.27548,-0.3385c0.10071,-0.14597 0.21787,-0.28739 0.32637,-0.41365c0.30104,-0.34912 0.64257,-0.59601 1.05341,-0.90267c1.35856,-1.01746 3.81731,-1.8073 6.77114,-1.50496c1.1121,0.11435 2.79162,0.51154 3.61135,1.65526c0.2196,0.30537 0.32811,0.91177 0.45134,1.35423l0,-0.00022zm-17.94369,-2.8711l3.79349,-0.02231s-2.11418,10.02883 -3.19163,14.91925l-4.36394,0c-3.04978,0 -5.76581,0.3777 -6.92144,-1.80578c-1.12098,-2.12003 -0.05111,-5.60641 0.45134,-7.97507c0.35518,-1.67627 1.10322,-5.10245 1.10322,-5.10245l3.93036,-0.03595s-1.11058,5.33418 -1.57275,7.99759c-0.16546,0.954 -0.50678,1.85235 -0.1503,2.55772c0.3385,0.67138 0.81258,0.71945 2.2569,0.75259c0.45762,0.01083 1.9563,0 1.9563,0l2.70846,-11.2856m-17.7557,7.2227c0.39719,-1.41119 0.97653,-2.94149 0.90289,-4.2132c-0.0797,-1.36008 -1.22017,-2.59844 -1.95608,-2.85876c-2.2164,-0.78248 -4.29139,0.31143 -5.11609,1.20371c-1.06684,1.15563 -1.42808,2.50553 -1.80578,4.36394c-0.28111,1.37957 -0.51154,2.83602 0,3.91195c0.90571,1.90216 3.73025,1.48677 6.77136,1.50496c0.45134,-1.20977 0.82449,-2.56855 1.20371,-3.9126zm5.26661,-5.56722c0.43315,3.1507 -1.22927,6.62842 -2.3745,9.65264c1.16776,0.10547 2.19106,-0.01624 2.2647,0.07082c0.07667,0.11283 -0.78269,3.60983 -1.08221,3.61893c-0.92671,0.02404 -3.99771,0.0496 -5.27831,0.0496c-4.17877,0 -8.0879,0.27223 -10.08145,-1.80557c-0.80955,-0.8442 -1.36939,-2.29199 -1.50496,-3.31053c-0.22567,-1.70031 0.05718,-3.57236 0.45155,-5.11588c0.3567,-1.39364 0.81388,-2.70867 1.50475,-3.9126c1.75597,-3.06494 4.81051,-5.34003 9.93094,-4.81484c0.9932,0.10222 2.41955,0.5371 3.31053,1.05319c0.06151,0.03617 0.277,0.20769 0.32637,0.2378c1.20393,0.76602 2.30087,2.59411 2.5326,4.27644zm-18.48859,-1.63729c-0.25274,1.15108 -0.50548,2.45593 -0.77186,3.59337l-4.2132,0c0.32637,-1.26089 0.5763,-2.51441 0.90289,-3.61135c1.34816,0 2.60169,0.01798 4.08239,0.01798m-5.1358,4.64678l4.0629,0c-0.53125,2.94019 -1.58315,7.68291 -2.40764,10.98435c-0.51609,2.0661 -0.86066,3.57366 -2.25712,4.66454c-0.12496,0.09789 -0.19708,0.05133 -0.30104,0.15052c-0.25729,0.24538 -1.44757,0.52995 -2.10639,0.60186c-1.07138,0.11608 -2.28268,0.01516 -3.59944,-0.01191c0.34457,-1.25937 0.7344,-2.7717 1.0415,-3.90047c3.20961,0.38853 3.29082,-2.64522 3.91217,-5.56722c0.35951,-1.6884 1.44909,-6.24465 1.65505,-6.92166"/>
   <g stroke="null" id="svg_4" fill="#21609B">
    <path stroke="null" id="svg_5" d="m79.50643,49.00277l-0.27609,0.71564c-4.70454,9.16183 -13.04153,14.78256 -24.93269,15.03049c-5.55891,0.11469 -10.85547,-1.31178 -14.31554,-2.86256c-7.46683,-3.35499 -13.74756,-9.57666 -17.17741,-16.22414c-4.92019,-9.52927 -5.80753,-22.78508 4.42295,-32.6859c0.15796,0 -1.24104,2.14692 -1.08308,2.14692l-0.28159,0.91618c-7.37205,23.0804 15.34092,42.86007 37.41998,40.59777c5.30617,-0.54394 12.07247,-3.44977 16.22345,-7.6344"/>
    <path stroke="null" id="svg_6" d="m66.14554,39.45908c5.55479,0.03777 11.35683,-2.55831 14.79286,-6.20312c-3.0061,7.63028 -11.70984,12.53468 -23.38122,10.97497c-9.77308,-1.30766 -19.08257,-11.14186 -20.04134,-20.99598c-0.70122,-7.1715 1.79803,-11.45161 5.91673,-16.64377c-1.43128,2.71558 -1.96629,4.80962 -2.09953,6.14543c-1.56452,15.51331 12.39251,26.64074 24.8125,26.72247"/>
    <path stroke="null" id="svg_7" d="m80.38003,20.19039c-0.8633,1.98071 -5.835,5.72099 -8.03068,6.1887c-8.69413,1.85228 -14.26197,-2.27054 -17.17878,-6.96203c-0.43337,-0.70053 -1.23486,-2.61394 -1.3784,-3.10088c-1.13115,-3.84605 -0.61125,-9.66319 2.76297,-12.6741c-1.01646,2.86325 -1.1648,6.1887 -0.62979,8.35073c0.32417,1.30697 1.31178,3.58919 2.30007,5.02459c1.79803,2.61462 2.93879,3.24991 5.24848,4.63861c1.04049,0.62498 2.15653,1.12634 2.63866,1.2637c2.19019,0.6449 6.81437,2.34334 14.26815,-2.72932"/>
   </g>
  </g>
 </g>

</svg>