<svg width="440" height="440" xmlns="http://www.w3.org/2000/svg" version="1.1" enable-background="new -4.725 200.945 1200 440" xml:space="preserve">
 <g>
  <title>Layer 1</title>
  <g id="svg_2">
   <g id="svg_23" stroke="null">
    <path fill="#444444" d="m110.45422,382.03029c5.62095,0 10.84076,2.00736 10.84076,3.54656c0,0.93699 -1.20442,3.27881 -1.94067,3.27881c-0.60221,0 -3.34616,-2.47586 -8.83339,-2.47586c-10.03781,0 -13.31662,5.82202 -13.31662,15.72578c0,8.69935 2.60957,16.06056 12.71441,16.06056c2.94435,0 5.82202,-0.33445 7.29419,-0.73592l0,-11.44297l-6.62496,0c-0.80295,0 -1.13773,-0.53552 -1.13773,-1.67324l0,-0.93699c0,-1.20442 0.33478,-1.67291 1.13773,-1.67291l9.97112,0c1.20442,0 1.67291,0.53519 1.67291,1.67291l0,15.05688c0,3.21178 -6.15647,4.08208 -12.64771,4.08208c-11.30925,0 -17.53274,-6.35753 -17.53274,-19.87488c0,-14.18658 6.55794,-20.61081 18.40271,-20.61081l-0.00001,0z" id="svg_24" stroke="null"/>
    <path fill="#444444" d="m128.12101,401.10223c0,-4.68462 -0.66923,-6.89272 -0.66923,-7.16048c0,-1.0707 2.34214,-1.33813 3.07807,-1.33813c1.33846,0 1.67324,2.27512 2.00736,3.7473c1.94067,-2.74395 4.21612,-4.28282 6.55827,-4.28282c2.20843,0 3.27881,0.93699 3.27881,2.20843c0,1.0707 -0.46849,3.0784 -1.13773,3.0784c-0.73592,0 -1.20442,-0.60254 -3.14509,-0.60254c-2.94435,0 -5.21981,3.47987 -5.21981,3.47987l0,20.81187c0,0.80295 -0.6689,1.27144 -2.27512,1.27144l-0.20074,0c-1.60622,0 -2.27512,-0.46849 -2.27512,-1.27144l0,-19.94191l0.00033,0l0,0.00001z" id="svg_25" stroke="null"/>
    <path fill="#444444" d="m157.89966,392.0681c7.76236,0 11.71072,5.15278 11.71072,14.78912c0,0.66923 -1.20442,2.34214 -1.87365,2.34214l-17.93421,0c0.46849,6.29018 3.14509,9.16784 8.76637,9.16784c4.95205,0 7.69599,-2.40917 8.2982,-2.40917c0.80295,0 2.00736,2.20843 2.00736,2.81097c0,1.33813 -4.48355,3.61359 -10.23855,3.61359c-9.4356,0 -13.91915,-4.81833 -13.91915,-14.98986c-0.06702,-9.97112 4.48355,-15.32464 13.1829,-15.32464l0.00001,0.00001zm6.62496,13.11621c0,-5.95573 -2.27545,-8.96711 -6.8257,-8.96711c-4.95205,0 -7.56195,3.01138 -7.96342,8.96711l14.78912,0z" id="svg_26" stroke="null"/>
    <path fill="#444444" d="m187.34386,392.0681c7.76236,0 11.71072,5.15278 11.71072,14.78912c0,0.66923 -1.20442,2.34214 -1.87365,2.34214l-17.93421,0c0.46849,6.29018 3.14509,9.16784 8.7667,9.16784c4.95172,0 7.69567,-2.40917 8.29788,-2.40917c0.80295,0 2.00736,2.20843 2.00736,2.81097c0,1.33813 -4.48322,3.61359 -10.23855,3.61359c-9.4356,0 -13.91915,-4.81833 -13.91915,-14.98986c-0.00033,-9.97112 4.48355,-15.32464 13.1829,-15.32464l0,0.00001zm6.69165,13.11621c0,-5.95573 -2.27512,-8.96711 -6.82537,-8.96711c-4.95205,0 -7.56195,3.01138 -7.96342,8.96711l14.78879,0z" id="svg_27" stroke="null"/>
    <path fill="#444444" d="m204.20737,401.10223c0,-4.68462 -0.66923,-6.89272 -0.66923,-7.16048c0,-1.0707 2.34214,-1.33813 3.0784,-1.33813c1.33813,0 1.67291,2.27512 2.00736,3.7473c2.40884,-2.6766 5.68797,-4.28282 8.83339,-4.28282c5.82202,0 9.23454,3.47987 9.23454,9.16784l0,19.67415c0,0.80295 -0.66923,1.27144 -2.27545,1.27144l-0.20041,0c-1.60622,0 -2.27545,-0.46849 -2.27545,-1.27144l0,-19.27268c0,-3.47987 -2.07439,-5.48724 -5.82202,-5.48724c-2.54288,0 -5.2865,1.5392 -7.16015,3.94837l0,20.81187c0,0.80295 -0.66923,1.27144 -2.27545,1.27144l-0.20074,0c-1.60622,0 -2.27545,-0.46849 -2.27545,-1.27144l0.00066,-19.80819l0,0l0,0.00001z" id="svg_28" stroke="null"/>
    <path fill="#88CE02" d="m236.86401,412.54519c1.00368,0 3.81399,2.6099 8.3649,2.6099c2.40884,0 5.35352,-0.73625 5.35352,-4.1491c0,-6.69198 -16.39534,-4.08208 -16.39534,-17.46572c0,-8.3649 6.8257,-11.6437 13.45066,-11.6437c6.02275,0 10.23855,2.07406 10.23855,3.94804c0,1.53953 -1.73994,4.95205 -3.14509,4.95205c-0.73592,0 -2.47586,-1.40516 -6.29018,-1.40516c-4.41653,0 -5.2865,2.07439 -5.2865,3.34616c0,6.49125 16.39469,3.88102 16.39469,17.19829c0,9.4356 -6.62496,12.58069 -12.84812,12.58069c-8.63233,0 -13.31694,-3.0784 -13.31694,-5.01874c0,-1.67357 2.27512,-4.9527 3.47987,-4.9527l-0.00002,-0.00001z" id="svg_29" stroke="null"/>
    <path fill="#88CE02" d="m276.68047,392.00108c9.03413,0 13.71842,5.42054 13.71842,15.25762c0,9.9041 -4.68429,15.32431 -13.71842,15.32431s-13.78544,-5.42021 -13.78544,-15.32431c0,-9.9041 4.75131,-15.25762 13.78544,-15.25762zm5.21981,15.25762c0,-5.68797 -1.60622,-8.63266 -5.21981,-8.63266s-5.28683,2.94468 -5.28683,8.63266s1.67324,8.69935 5.28683,8.69935s5.21981,-3.01105 5.21981,-8.69935z" id="svg_30" stroke="null"/>
    <path fill="#88CE02" d="m308.66788,392.00108c4.01506,0 9.4356,1.33846 9.4356,3.94837c0,1.07103 -2.07439,4.34984 -3.01138,4.34984c-0.20074,0 -0.53519,-0.20074 -1.00368,-0.4018c-1.00401,-0.53519 -2.54288,-1.27144 -4.95205,-1.27144c-4.55057,0 -6.42423,2.81097 -6.42423,8.63266s1.73961,8.69935 6.08945,8.69935c2.6766,0 4.48322,-0.80262 5.55426,-1.33813c0.46849,-0.20074 0.80295,-0.33478 1.00368,-0.33478c1.27144,0 2.94468,3.21211 2.94468,4.28282c0,3.21178 -8.09714,3.94837 -9.9041,3.94837c-9.70303,0 -14.32063,-4.95205 -14.32063,-15.12357c0,-10.03814 4.41653,-15.39166 14.58839,-15.39166l0.00001,-0.00003z" id="svg_31" stroke="null"/>
    <path fill="#88CE02" d="m322.38597,381.16032c0,-1.20442 1.00401,-1.80663 3.41285,-1.80663l1.60622,0c2.40917,0 3.41285,0.60221 3.41285,1.80663l0,22.48479l0.20074,0.06669l6.89239,-10.30524c0.66923,-0.93699 1.80696,-1.07103 3.47987,-1.07103l2.07439,0c2.14141,0 3.21211,0.33478 3.21211,0.86997c0,0.26743 -0.20074,0.66923 -0.53552,1.13773l-7.8964,11.24223l9.23454,14.65508c0.26776,0.53552 0.46849,0.86997 0.46849,1.20475c0,0.53519 -1.00368,0.86964 -3.21178,0.86964l-2.40917,0c-1.67291,0 -2.87733,-0.20074 -3.41285,-1.0707l-7.8964,-13.04919l-0.20074,0.06669l0,12.24624c0,1.20442 -1.00368,1.80663 -3.41285,1.80663l-1.60622,0c-2.40884,0 -3.41285,-0.60221 -3.41285,-1.80663l0,-39.34764l0.00033,0l0,-0.00001z" id="svg_32" stroke="null"/>
   </g>
   <g id="svg_33">
    <path d="m114.66793,168.514c-10.389,4.887 -37.886,26.886 -43.182,33.404c-5.5,6.518 -7.129,-3.666 -1.426,-20.572c4.48,-13.647 15.888,-32.183 35.034,-48.07c11.202,-9.166 35.849,-22.405 50.921,-30.146c3.056,-1.63 42.571,-18.332 77.809,-26.683c3.056,-0.815 -3.666,5.092 -4.685,8.351c-5.296,15.48 -111.01,81.882 -111.01,81.882l-3.461,1.834z" id="svg_34"/>
    <path d="m263.56193,355.294c1.833,10.999 0.204,11.814 -11.202,13.24c-11.407,1.426 -19.758,-2.852 -22.813,-5.703c-3.056,-2.853 -3.666,-9.166 -0.611,-14.869c1.834,-3.667 3.667,-4.889 4.686,-9.37c1.018,-4.277 1.833,-5.296 2.647,-6.925c0.814,-1.427 1.019,-2.853 1.222,-12.833c0.204,-9.98 0,-28.72 1.019,-36.663c1.019,-8.147 36.257,3.666 36.257,3.666s-8.352,20.776 -10.592,25.868c-2.241,5.093 -2.037,14.869 -2.037,16.906s-0.814,6.11 -1.426,6.314c-0.611,0.203 2.037,5.499 0.814,8.555c-0.815,2.852 1.833,10.185 2.036,11.814z" id="svg_35"/>
    <path d="m277.00593,43.857c-1.223,-7.74 0,-23.018 1.629,-25.461c5.093,-6.926 31.979,-7.74 37.683,0.407c2.444,3.666 2.24,12.221 1.833,17.721c-0.407,5.499 -1.833,17.313 -2.037,21.184c-0.203,2.852 -29.738,7.332 -36.256,-0.408c-1.834,-2.036 -2.852,-13.443 -2.852,-13.443z" id="svg_36"/>
    <path d="m336.88993,335.536c12.425,8.963 21.998,10.592 28.312,13.851c6.314,3.26 4.685,9.574 -5.907,11.407c-8.555,1.629 -21.998,-1.63 -30.96,-1.63s-28.924,1.019 -34.22,-2.647c-6.11,-4.277 -3.463,-12.222 -3.463,-12.222c1.63,-4.48 5.703,-14.462 4.481,-22.609s-2.852,-12.628 -5.907,-20.165c-3.055,-7.536 -5.295,-26.071 -2.443,-27.09s2.036,0 5.703,0.814c3.666,0.814 7.74,2.037 15.684,2.037s16.702,-1.223 19.758,-1.833c3.055,-0.611 5.499,-1.223 4.48,5.092c-1.018,6.314 -4.073,18.128 -4.277,27.294c-0.203,9.166 -0.203,19.758 0.408,21.591c0.61,1.833 5.092,3.87 8.351,6.11z" id="svg_37"/>
    <g id="svg_38">
     <g id="svg_39">
      <path fill="#88CE02" d="m293.30093,64.226c-22.405,19.351 -65.791,24.646 -130.155,49.496c-16.499,6.314 -60.495,25.257 -71.087,45.015c35.645,-20.572 48.885,7.74 51.736,36.867c2.647,27.294 16.295,41.553 51.329,40.737c36.053,-0.814 47.052,20.165 57.032,44.812c19.35,-94.308 50.311,-112.639 70.271,-128.73c42.368,-34.424 -9.776,-95.123 -29.126,-88.197z" id="svg_40"/>
      <path fill="#88CE02" d="m293.30093,64.226c-53.773,18.739 -106.936,23.424 -169.467,61.921c-14.869,9.166 -46.237,29.941 -52.348,69.661c22.812,-25.258 75.567,-57.032 140.136,-77.197c32.59,-10.185 56.422,-16.906 85.345,-28.109c-2.036,-13.037 -2.036,-18.129 -3.666,-26.276z" id="svg_41"/>
     </g>
     <path d="m361.94293,175.846c0,0 -3.87,13.24 -11.61,17.518c0,0 -5.703,2.037 -17.109,-4.277c-3.259,-1.833 -5.703,-8.147 -5.5,-10.185c0.204,-4.889 3.259,-7.129 3.259,-7.129s3.26,-5.5 7.129,-5.296c3.871,0.203 10.389,0.814 12.426,-1.019c1.832,-2.037 11.813,3.666 11.405,10.388z" id="svg_42"/>
     <path d="m278.83893,47.727c0,0 -0.814,10.389 -2.24,16.906c-0.204,1.223 -6.314,1.833 -10.796,3.667c8.555,24.442 60.088,24.238 66.81,12.221c-3.259,-2.24 -9.777,-5.703 -12.832,-6.925c-3.056,-1.223 -2.852,-1.019 -3.056,-6.722c-0.203,-5.704 -0.611,-16.295 -1.019,-19.147c-0.407,-2.852 -31.979,-2.852 -36.867,0z" id="svg_43"/>
     <path fill="#EFEFEF" d="m280.87593,47.727c0,0 0,5.907 -0.611,11.61c-0.203,2.648 -0.407,4.277 -0.814,6.314c-0.204,1.223 6.925,6.11 8.962,16.906c9.777,21.794 32.387,10.999 41.756,0.611c-3.259,-2.241 -8.555,-5.296 -14.665,-7.74c-3.056,-1.223 -1.63,-3.87 -1.833,-9.573c-0.204,-5.703 -1.019,-14.055 -1.426,-17.11c-0.409,-3.055 -26.48,-3.87 -31.369,-1.018z" id="svg_44"/>
     <path d="m278.83893,47.727c0,0 -0.204,3.667 -0.814,7.944c2.647,2.647 6.11,6.314 8.759,8.555c1.833,1.63 6.313,1.426 10.388,1.426c3.666,0 6.925,0.407 8.351,-0.407c3.26,-1.63 7.944,-5.703 10.592,-8.759c-0.203,-3.666 -0.407,-7.129 -0.61,-8.759c-0.206,-2.852 -31.778,-2.852 -36.666,0z" id="svg_45"/>
     <path d="m297.37493,63.207c-2.445,0 -5.297,-0.203 -7.537,-0.611c-1.019,-0.203 -2.037,-0.814 -2.852,-1.222c-1.426,-1.019 -2.852,-2.24 -4.48,-3.463c-3.26,-2.444 -3.463,-3.87 -3.463,-4.48c1.426,-12.833 -0.408,-23.628 -0.408,-23.628s-1.426,-5.5 6.314,-6.926s12.425,-1.629 12.425,-1.629s4.889,0 12.425,1.629c7.74,1.426 6.314,6.926 6.314,6.926s-1.833,10.795 -0.407,23.628c0,0.61 -0.203,2.036 -3.463,4.48c-2.852,2.037 -5.092,4.277 -7.332,4.685c-2.241,0.408 -5.093,0.611 -7.536,0.611z" id="svg_46"/>
     <path d="m297.37493,15.952c-13.443,0 -16.092,3.666 -19.962,7.74c-0.814,1.018 -0.204,7.129 1.223,20.165l1.833,0c0,0 -1.223,-3.667 -1.019,-7.944s1.019,-4.073 0.407,-5.092c-0.814,-1.223 -2.444,-3.26 1.223,-5.296c3.666,-2.037 9.369,1.629 16.295,1.833c6.925,-0.204 12.832,-3.87 16.498,-1.833c3.666,2.036 2.037,4.073 1.223,5.296c-0.815,1.222 0.203,0.814 0.407,5.092c0.203,4.277 -1.019,7.944 -1.019,7.944l1.833,0c1.222,-13.036 2.037,-18.739 1.426,-19.758c-3.463,-4.481 -6.925,-7.944 -20.368,-8.147z" id="svg_47"/>
     <path d="m361.94293,176.457c0,0 -3.87,12.425 -11.406,16.702c-1.63,-0.814 -1.426,-2.036 -2.852,-3.87c-0.408,-0.61 -1.834,-1.019 -2.444,-1.629c-0.611,-0.611 -0.407,-1.63 -1.426,-2.444c-0.815,-0.815 -1.426,-0.204 -2.241,-0.815c-0.814,-0.814 -1.019,-1.833 -1.629,-2.443c-0.408,-0.408 -2.037,-0.611 -2.444,-1.019c-1.019,-1.019 -9.98,-2.852 -9.573,-4.889c0.814,-3.056 2.444,-5.296 2.444,-5.296s3.87,-5.703 7.739,-5.5c3.87,0.204 7.537,1.019 9.574,-0.814c2.241,-2.038 14.87,5.499 14.258,12.017z" id="svg_48"/>
     <path d="m335.46393,86.428c0,0 12.832,-3.056 21.591,5.296c8.759,8.555 8.147,19.146 5.5,25.664c2.24,2.648 6.314,9.98 3.259,18.739c13.443,11.406 7.536,28.924 -4.481,40.534c0,0 -2.852,-10.592 -14.258,-11.203c0.407,-4.073 -10.592,-7.333 -5.5,-17.925c-7.74,-1.833 -7.536,-7.129 -8.758,-13.646c-1.019,-6.519 2.647,-47.459 2.647,-47.459z" id="svg_49"/>
     <path fill="#EFEFEF" d="m330.77893,92.131c0,0 14.869,-7.536 23.628,1.019c8.758,8.555 6.313,17.924 3.666,24.442c2.24,2.647 7.536,10.185 4.277,19.146c-0.611,2.037 -5.092,2.037 -8.352,7.333c8.147,-4.686 13.24,-3.463 15.073,2.443c2.852,9.166 -3.463,20.165 -8.962,26.276c0,-0.204 -0.204,-0.408 -0.204,-0.611c-0.814,3.056 -1.833,8.962 -7.943,15.48c-3.056,3.259 -5.5,2.852 -8.963,2.037c-4.073,-1.019 -5.499,-2.853 -11.202,-5.907c-3.259,-1.833 -1.426,-4.074 -1.426,-5.907c0,-0.407 0.407,-1.019 1.019,-1.833c0.407,-1.019 1.629,-2.647 3.462,-4.481c0,0 2.648,-3.666 6.519,-3.463c3.87,0.204 7.943,-0.61 8.962,-1.629l0,0c0,-7.129 -8.147,-7.333 -5.296,-19.554c0.204,-0.611 1.223,-1.63 4.481,-2.037c-4.889,-1.019 -7.129,-1.223 -10.592,-4.481c-2.444,-2.24 -4.277,-5.092 -4.889,-8.758c-1.221,-6.314 -3.258,-39.515 -3.258,-39.515z" id="svg_50"/>
     <path d="m287.80093,79.299c-1.222,-1.63 -7.536,-9.777 -19.554,-13.036c-3.463,-1.019 -5.703,1.833 -9.165,3.87c-1.019,-0.611 -5.5,-2.648 -7.944,-1.223s-4.073,2.852 -6.518,3.87c-1.223,-0.611 -4.481,-0.611 -7.129,0.407c-2.648,0.815 -6.722,2.648 -10.592,7.944c-2.444,8.759 43.181,2.24 43.181,2.24l17.721,-4.072z" id="svg_51"/>
     <path fill="#88CE02" d="m288.20893,79.299c-6.519,-2.241 -5.5,-9.777 -19.962,-10.999c-2.852,-0.204 -4.685,2.036 -6.722,3.462c1.019,1.019 2.037,2.648 2.648,4.277c-1.833,-2.036 -5.092,-4.685 -8.352,-5.296c-3.055,-0.61 -5.092,1.63 -8.351,3.26c0.61,0.61 1.222,1.629 2.036,2.852c-2.852,-1.833 -4.888,-2.444 -8.758,-1.019c-2.648,0.814 -7.74,3.055 -11.61,8.555c-2.444,8.759 41.145,-1.019 41.145,-1.019l17.926,-4.073z" id="svg_52"/>
     <path d="m326.50193,82.558c0,0 0,-2.241 -0.204,-4.277c0,-0.407 -1.629,-1.426 -1.629,-1.833l-0.407,-0.408c0,0 3.259,-1.833 5.703,-0.814c2.647,0.814 4.073,4.277 4.073,4.277c4.685,-1.629 5.092,0.204 7.333,2.648c4.889,-1.019 5.499,0.814 8.555,5.296c0,0 -3.666,-0.611 -10.795,0.61c-6.926,1.018 -12.629,-5.703 -12.629,-5.499z" id="svg_53"/>
     <path fill="#88CE02" d="m325.68693,81.539c0,0 1.222,-1.019 0.814,-1.223c2.24,-1.222 5.296,-2.647 6.722,1.223c4.685,-1.63 5.296,0.611 7.536,3.056c5.703,-2.648 6.11,0.61 6.518,2.036c-1.833,0 -4.48,0.204 -8.147,0.611c-6.925,1.019 -13.647,-5.907 -13.443,-5.703z" id="svg_54"/>
     <path d="m256.43393,76.447c0,0 11.61,4.073 21.387,3.462c9.777,-0.814 26.479,-1.629 35.441,3.667c0,0 9.166,-3.26 17.721,-1.019c8.556,2.24 24.239,16.906 19.555,32.386c-0.408,1.019 -3.056,2.648 -6.111,3.667c0,0 1.63,6.925 -1.222,12.628c-2.852,5.5 -9.166,16.092 -9.37,30.757l0,0c-0.203,2.444 -0.61,7.536 -1.018,9.98c-15.888,-0.61 -40.33,-6.518 -64.365,-6.11c0.203,-2.647 0.407,-4.277 0.611,-6.925l0.61,0c-1.222,-6.722 -1.629,-10.185 -2.852,-15.277c-7.74,-4.888 -15.888,-10.591 -22.812,-21.387c-6.722,-10.796 12.425,-45.829 12.425,-45.829z" id="svg_55"/>
     <path d="m335.05693,186.438c0,0 12.629,45.219 -2.24,64.162c0,0 2.24,8.758 -2.852,18.128c-0.815,4.073 -1.834,7.74 -2.444,11.813c-2.648,16.906 -7.13,24.035 -8.352,51.125l-12.222,-0.203c0,0 -1.426,-19.554 -5.703,-29.942c-2.443,-5.906 -12.018,-13.851 -11.609,-21.794c0.407,-6.111 1.629,-11.203 12.018,-19.351c0.814,-11.813 -11,-23.017 -9.166,-67.013l42.57,-6.925z" id="svg_56"/>
     <path fill="#EFEFEF" d="m331.39093,184.604c3.259,20.776 10.795,51.533 -2.852,66.605c0.61,2.852 1.018,6.926 0.203,11.61c-0.407,2.444 -1.222,5.092 -2.24,7.943c-2.037,4.889 -2.852,12.018 -3.463,16.295c-2.648,16.906 -2.648,17.722 -3.87,44.812l-12.222,-0.204c0,0 -1.426,-19.554 -5.703,-29.941c-2.443,-5.907 -7.536,-10.999 -7.943,-18.943c-0.407,-6.11 3.87,-18.331 14.055,-17.924c-0.611,-24.646 -12.018,-19.758 -15.073,-71.087l39.108,-9.166z" id="svg_57"/>
     <path fill="#EFEFEF" d="m256.43393,76.447c0,0 4.481,1.426 9.369,1.833c4.889,0.407 10.185,0 14.869,-0.204c9.777,-0.814 23.628,-1.833 32.794,3.463c0,0 5.092,-1.63 10.592,-1.223c2.444,0.204 4.889,2.241 7.74,3.056c8.962,2.24 17.517,17.109 13.646,30.553c-0.407,1.019 -3.259,0 -6.518,1.019c0.61,2.852 1.019,9.37 -2.241,16.295c-3.462,6.926 -7.943,15.888 -7.129,32.998c-21.387,-1.019 -30.96,-2.444 -52.144,-3.463c-1.833,-7.537 -3.056,-15.073 -3.259,-18.943c2.852,-1.426 4.48,-2.647 6.722,-5.092c-6.11,1.019 -8.555,0.611 -12.222,-1.426c-3.666,-2.037 -10.184,-8.555 -13.443,-12.832c-0.407,-0.408 -2.647,6.313 -7.739,6.518c-1.834,-2.648 5.906,-10.185 4.48,-13.036c-5.091,-10.389 4.483,-39.516 4.483,-39.516z" id="svg_58"/>
     <path d="m333.01893,167.698c0,0 0.407,7.333 0.407,9.166c0,2.037 1.63,8.147 1.833,10.999c-2.24,3.87 -12.017,12.629 -29.738,15.888c-17.517,3.666 -40.737,-23.831 -40.737,-23.831c0.611,-2.648 2.648,-10.389 4.074,-14.462c0.204,-0.407 0.611,-1.426 0.611,-1.833c1.834,-2.648 63.55,4.073 63.55,4.073z" id="svg_59"/>
     <path fill="#EFEFEF" d="m328.53893,168.31c0,5.092 0.814,8.759 1.426,12.018c1.018,5.907 2.647,9.777 2.647,13.647c0,11.813 -15.48,9.776 -28.517,10.184c-17.517,3.667 -32.386,-23.831 -32.386,-23.831c1.222,-4.685 2.037,-9.98 3.87,-14.462l0,0c0.203,-2.444 0.611,-5.499 0.814,-6.925c24.85,0 42.367,1.426 52.552,2.443c0.408,2.241 0.001,6.111 -0.406,6.926l0,0z" id="svg_60"/>
     <path d="m308.98393,194.585c0,0 -10.795,-24.035 -43.182,-16.905c-7.739,21.794 -18.128,46.848 -11.406,73.938c-6.722,9.166 -14.462,14.259 -14.462,31.164c0,16.906 0.815,19.758 0.815,19.758l23.831,1.223c0,0 7.74,-9.98 10.795,-20.776c0.815,-3.056 1.63,-8.555 1.019,-14.869c0.814,-1.222 4.277,-4.073 4.685,-9.573c0,0 11.61,-6.11 18.332,-20.979c6.315,-13.446 4.685,-25.056 9.573,-42.981z" id="svg_61"/>
     <path fill="#EFEFEF" d="m308.98393,194.585c-0.61,-2.24 -8.758,-24.238 -38.904,-17.721c-17.72,47.256 -11.202,66.81 -8.555,75.364c-12.018,15.276 -17.517,18.535 -15.072,49.496l15.888,0c7.332,-11.61 8.962,-15.888 9.369,-31.164c0,-0.611 -2.24,1.222 -3.87,3.259c1.223,-6.314 4.685,-7.536 7.333,-11.406c1.222,-1.63 2.24,-4.074 2.24,-7.333c14.258,-9.573 19.554,-21.591 22.609,-34.016c2.445,-8.554 5.296,-22.609 8.962,-26.479z" id="svg_62"/>
     <path d="m258.67393,161.792c0,0 5.5,0.203 10.389,1.833c4.685,1.629 4.685,2.647 6.518,4.685s6.314,5.092 5.5,8.147c-0.408,1.63 -1.426,2.037 -2.852,3.463c-0.611,0.611 -5.093,5.499 -6.111,6.11c-0.611,0.407 -1.426,1.019 -2.037,1.426c-0.61,0.407 -2.443,1.63 -3.055,2.037c-2.037,1.019 -3.463,1.63 -5.703,1.426c0,0 -5.092,-0.204 -8.352,-3.666c0,0 -0.407,-1.63 0.408,-2.444c0,0 -4.278,-3.667 -5.5,-6.111c-1.223,-2.443 -1.223,-5.906 -0.407,-7.739c0.407,-1.835 8.35,-6.927 11.202,-9.167z" id="svg_63"/>
     <path d="m263.76693,359.979l-0.611,5.093c0,0 -1.833,2.24 -15.48,2.037c-13.851,-0.204 -17.517,-4.481 -18.739,-6.722l-0.814,-5.296c0,0 2.648,-3.87 3.259,-3.87c4.481,0.407 19.758,6.518 30.35,8.147c1.016,0 1.219,0.407 2.035,0.611z" id="svg_64"/>
     <path d="m293.30093,349.591c0,2.24 -0.204,2.24 -0.204,4.481c2.444,1.833 8.556,2.852 20.165,2.647c16.906,-0.407 32.59,5.093 51.736,1.833l0.204,-3.666l-1.833,-0.203l-67.828,-5.5l-2.24,0.408z" id="svg_65"/>
     <path d="m308.16993,356.72c1.63,0 3.259,0 5.092,0c11,-0.407 21.388,2.037 32.59,2.648c5.907,-0.204 13.24,-1.63 12.629,-5.907l-57.847,-4.889c-3.463,3.87 -0.816,7.129 7.536,8.148z" id="svg_66"/>
     <path d="m241.76793,270.968c1.833,1.222 14.258,8.555 34.423,7.536c-0.408,3.87 -0.204,11.407 -9.166,24.646c-4.481,6.518 -8.352,17.925 -9.166,32.387c0.204,3.259 2.037,6.11 -0.407,10.388c0.814,2.647 4.073,7.943 5.703,11.202c1.629,3.26 2.444,6.926 -8.352,7.13c-10.999,0.203 -28.72,-1.019 -26.275,-9.573c1.223,-4.481 4.685,-9.166 5.093,-11c0.407,-1.833 0.407,-7.332 3.869,-10.999c3.056,-10.184 2.037,-19.961 1.427,-29.127c-1.019,-9.574 -1.223,-24.85 2.851,-32.59z" id="svg_67"/>
     <path d="m260.71093,104.963c14.462,-19.351 2.24,-34.83 -20.979,-30.146c-9.37,1.833 -18.739,8.352 -19.351,20.165c-3.055,0.407 -9.98,0.814 -13.443,13.443c-2.647,9.777 -4.073,11.61 -8.759,16.498c-3.055,3.463 0.204,10.592 2.444,15.685c7.537,17.517 30.757,19.146 46.441,32.386c5.296,-1.426 10.795,-7.332 12.425,-11.202c-13.24,-15.685 -10.389,-21.795 -15.685,-29.942c5.704,-2.038 18.74,-9.981 16.907,-26.887z" id="svg_68"/>
     <path fill="#EFEFEF" d="m257.85893,103.741c0.814,-1.223 2.24,-3.87 2.852,-4.889c0.204,-0.204 2.444,3.666 2.648,3.463c5.499,-8.963 6.925,-21.999 0.61,-23.221c-1.426,-0.204 -4.073,-0.814 -6.314,-1.63c-4.073,-1.426 -7.739,-1.426 -14.258,-0.203c-8.962,1.629 -17.924,8.147 -17.924,17.517c0,0.611 6.313,2.444 8.147,9.981c-3.056,-4.278 -8.352,-8.963 -14.666,-4.889c-6.722,4.277 -3.259,14.054 -12.221,24.238c-3.056,3.463 -2.648,7.537 0.61,15.684c5.296,12.833 30.35,19.758 43.997,31.979c3.259,-1.426 5.499,-4.685 7.129,-7.129c-9.166,-9.573 -12.833,-18.536 -15.48,-25.054c-3.259,-7.536 -6.926,-11.813 -14.055,-17.518c3.667,1.426 6.519,2.852 8.147,4.074c1.833,1.222 4.481,1.426 6.926,0.611c8.76,-3.053 13.445,-15.275 13.852,-23.014z" id="svg_69"/>
     <path d="m346.46293,107c-0.611,7.74 -6.314,3.87 -9.369,2.444c-6.111,-2.648 -12.222,-4.481 -19.351,-4.481s-16.295,0.611 -24.238,2.648c-10.999,3.055 -14.259,2.852 -19.147,0.407c-4.888,-2.648 -13.442,-9.166 -13.442,-9.166s-0.204,2.037 1.833,4.685c2.647,3.259 8.555,7.333 16.498,9.98c3.87,1.223 6.926,0.407 10.389,-0.407c18.128,-4.481 37.274,-5.296 53.365,4.481c0.815,0.407 3.667,-0.815 4.889,-2.648c1.628,-2.647 -1.427,-7.943 -1.427,-7.943z" id="svg_70"/>
     <path fill="#001423" d="m253.78593,184.604c1.629,1.019 3.666,1.63 5.906,3.463c0,0 -1.833,0 -2.647,-0.814c-1.019,-0.611 -3.056,-2.444 -3.259,-2.649l0,0z" id="svg_71"/>
     <path fill="#EFEFEF" d="m312.65093,23.081c-0.611,-1.833 -5.093,-5.093 -15.48,-5.093c-11.203,0 -14.462,3.463 -14.665,5.296c0,0.611 -0.815,7.13 -1.019,9.777c0,0 0,3.259 0.203,8.147c0.204,3.259 1.019,5.092 1.426,9.37c0.407,4.48 1.63,7.332 3.87,10.999c1.019,0.61 1.833,1.222 2.852,1.426c4.074,0.814 11.203,1.018 15.073,0c2.24,-0.611 5.092,-4.481 5.703,-7.944c0.814,-4.277 1.629,-7.333 1.833,-9.98c0.407,-2.647 0.611,-8.555 0.814,-10.185c0.612,-4.48 -0.407,-11.406 -0.61,-11.813z" id="svg_72"/>
     <path d="m291.26393,274.838c0,0 10.796,4.685 37.479,0.611c0,0 -7.536,37.886 -4.073,56.828c0,0 3.462,4.889 29.127,14.258c0,0 11.406,2.852 10.999,8.556c0,0 0.407,1.222 -13.443,0.814s-26.887,-2.852 -36.053,-2.852s-18.943,0.407 -20.572,-2.24c-1.833,-2.444 0.407,-8.759 3.055,-12.426c2.853,-3.869 2.037,-6.722 1.834,-13.646c-0.613,-18.128 -14.464,-36.867 -8.353,-49.903z" id="svg_73"/>
     <path fill="#88CE02" d="m289.02293,278.301c-1.426,2.037 0.203,9.776 2.24,17.313c2.037,7.536 6.519,12.018 7.537,24.442c1.018,12.221 1.222,13.851 -2.241,20.979s-4.481,13.647 7.536,13.851s18.536,-0.204 30.757,1.63c12.222,1.833 16.499,2.444 23.221,1.426s8.147,-3.26 5.296,-5.296c-2.852,-2.037 -14.666,-4.277 -19.758,-8.352c-4.889,-3.666 -18.739,-9.777 -18.942,-11.406c-0.611,-5.5 -0.815,-25.461 0.203,-31.979c1.019,-6.519 2.444,-15.888 2.852,-18.332s2.444,-4.889 -1.019,-4.074c-3.462,0.814 -16.498,2.648 -26.275,2.037c-9.777,-0.61 -10.795,-2.851 -11.407,-2.239z" id="svg_74"/>
     <path opacity="0.3" enable-background="new    " d="m295.94893,341.24c3.462,1.629 8.555,2.852 12.425,2.852c0,0 -1.427,6.722 0.814,10.795c2.24,4.074 -16.295,1.63 -16.295,1.63l-0.814,-14.462l3.87,-0.815z" id="svg_75"/>
     <path opacity="0.3" enable-background="new    " d="m349.92593,358.757c3.259,-1.019 5.5,-4.685 2.852,-8.147c-2.852,-3.463 -5.296,-4.074 -1.63,-4.277c3.667,-0.204 17.11,7.943 17.11,7.943l-6.926,6.314l-11.406,-1.833z" id="svg_76"/>
     <path opacity="0.3" enable-background="new    " d="m288.41193,286.244c4.685,1.63 11.814,2.037 17.925,1.833c6.11,-0.203 15.276,-1.019 21.184,-3.055c5.906,-2.037 3.462,2.24 3.462,2.24l-3.259,3.056c0,0 -7.74,3.055 -20.368,2.852c-14.869,-0.204 -19.351,-1.833 -19.351,-1.833l0.407,-5.093z" id="svg_77"/>
     <path opacity="0.3" enable-background="new    " d="m288.81893,296.429c4.686,1.63 11.814,2.037 17.925,1.833c6.11,-0.203 14.258,-0.203 20.165,-2.444c2.444,-0.814 1.019,2.648 1.019,2.648l-1.019,1.833c0,0 -7.944,2.852 -20.369,2.647c-14.869,-0.203 -17.517,-1.426 -17.517,-1.426l-0.204,-5.091z" id="svg_78"/>
     <path fill-opacity="0" d="m291.26393,274.838c0,0 17.721,6.314 37.683,2.037c0,0 -7.74,36.46 -4.277,55.199c0,0 3.462,4.888 29.127,14.258c0,0 11.406,2.852 10.999,8.555c0,0 0.407,1.223 -13.443,0.814c-13.851,-0.407 -26.887,-2.852 -36.053,-2.852s-18.943,0.408 -20.572,-2.24c-1.833,-2.444 0.407,-8.759 3.055,-12.425c2.853,-3.87 2.037,-6.722 1.834,-13.647c-0.613,-17.924 -14.464,-36.663 -8.353,-49.699z" id="svg_79"/>
     <path fill-opacity="0" d="m291.26393,274.838c0,0 17.721,6.11 37.683,1.833c0,0 -7.74,36.664 -4.277,55.403c0,0 3.462,4.888 29.127,14.258c0,0 11.406,2.852 10.999,8.555c0,0 0.407,1.223 -13.443,0.814c-13.851,-0.407 -27.091,-4.277 -36.053,-2.852c-9.573,1.63 -18.943,1.019 -20.572,-2.24c-1.426,-2.647 0.407,-8.759 3.055,-12.425c2.853,-3.87 2.037,-6.722 1.834,-13.647c-0.613,-17.924 -14.464,-36.663 -8.353,-49.699z" id="svg_80"/>
     <path d="m275.37593,153.645c0,1.426 15.888,9.369 24.646,10.999c8.759,1.629 27.091,0 29.942,-0.611l-0.408,2.852c0,0 -21.794,3.259 -38.496,-1.222c-16.703,-4.481 -14.869,-5.5 -14.869,-5.5l-0.815,-6.518z" id="svg_81"/>
     <g id="svg_82">
      <path fill="#EFEFEF" d="m241.35993,327.389c2.444,1.223 11.203,3.463 16.906,2.241c0.814,-0.204 0,-14.055 2.241,-20.369c3.259,-8.759 8.555,-15.888 10.998,-31.367c-8.555,-0.815 -18.331,-3.056 -23.424,-4.686c-6.517,19.962 -4.276,37.071 -6.721,54.181z" id="svg_83"/>
      <path fill="#EFEFEF" d="m255.00793,340.222c1.426,0.407 2.444,2.036 2.852,1.019c0.814,-1.834 -1.426,-5.296 -1.63,-7.74c0,-0.204 0,0 0,-0.204c-1.833,-1.629 -14.258,-1.833 -13.443,-1.019c-1.426,2.648 -3.666,2.241 -4.48,7.537c-0.407,2.647 2.852,0.407 5.906,0.203c-5.499,3.666 -11.813,8.352 -12.832,12.425c-1.222,5.703 0.815,7.333 6.926,10.389c5.296,1.222 11.61,1.426 16.498,1.222c5.5,-1.019 6.519,-3.666 4.889,-7.333c-2.446,-5.5 -4.075,-12.629 -4.686,-16.499z" id="svg_84"/>
     </g>
     <path d="m257.24793,75.632c6.722,3.87 16.092,2.852 19.554,2.648c0.815,0 8.963,-1.426 9.37,-1.223c0.814,0.204 0.814,0.815 0.814,0.815s-3.055,1.629 -9.98,2.036c-6.518,0.407 -14.258,0 -18.535,-2.036c-5.093,-2.24 -1.223,-2.24 -1.223,-2.24z" id="svg_85"/>
     <path d="m326.50193,79.502c1.222,0.814 9.166,3.87 12.629,7.536c3.055,3.26 1.426,3.056 0.814,2.241c-0.814,-1.019 -7.129,-5.296 -9.573,-6.314s-5.5,-2.852 -5.5,-3.259s1.63,-0.204 1.63,-0.204z" id="svg_86"/>
     <path fill="#EFEFEF" d="m256.22893,164.032c5.907,-0.407 12.018,1.019 15.888,5.092c2.037,2.037 5.296,4.277 4.889,6.314c0,0.611 -1.223,2.241 -2.24,3.463c-0.611,0.814 -2.444,2.647 -3.056,3.259c-0.814,0.611 -3.666,2.852 -4.277,3.259c-0.611,0.408 -1.426,1.427 -2.037,1.63c-2.036,1.019 -4.277,0.204 -6.314,-0.814c-2.036,-1.019 0.408,-1.223 -1.833,-2.852c-5.499,-3.87 -8.555,-6.519 -6.314,-14.055c0.203,-1.426 2.443,-3.056 5.294,-5.296z" id="svg_87"/>
    </g>
    <path opacity="0.4" enable-background="new    " d="m204.28993,117.388c-18.332,7.333 -64.977,30.554 -78.216,37.683l0,0c10.999,6.925 16.091,23.627 17.721,40.533c0.203,1.63 0.407,3.056 0.611,4.685c0.203,1.426 0.407,2.444 0.61,3.056c0,0.204 0,0.611 0.204,0.814c12.018,-32.793 54.995,-67.42 56.625,-70.068c0.814,-1.222 -1.019,-6.518 1.833,-11.609c3.667,-6.52 10.797,-9.372 0.612,-5.094z" id="svg_88"/>
    <path opacity="0.4" enable-background="new    " d="m247.87893,271.172c9.369,-18.739 9.573,-36.664 9.369,-57.644c0,-8.759 6.314,-21.184 3.056,-17.721c-12.222,13.646 -42.978,39.312 -65.18,40.737c31.164,-1.018 43.385,14.666 52.755,34.628z" id="svg_89"/>
    <path d="m108.14893,172.383c11.61,-8.351 71.698,-40.329 86.16,-44.811c14.461,-4.685 9.98,-10.185 9.98,-10.185s-58.662,25.257 -93.696,47.052" id="svg_90"/>
    <path opacity="0.4" enable-background="new    " d="m279.24593,113.518c-4.685,-1.833 -8.351,3.667 -7.129,8.963c1.223,5.296 12.222,11.202 11.61,30.553c-0.407,15.888 -3.87,22.405 -3.87,22.405l-7.74,-9.776c0,0 -1.222,-21.999 -3.87,-25.258c-2.647,-3.259 -10.999,-9.166 -14.258,-12.221c-3.259,-3.056 3.666,-7.129 3.259,-12.833c-0.407,-5.499 3.463,-16.498 3.463,-16.498l18.535,14.665z" id="svg_91"/>
    <path opacity="0.4" enable-background="new    " d="m307.55893,200.288c-0.407,15.276 3.056,37.886 4.481,48.682c1.426,10.795 3.259,11.61 0,16.499c-3.259,4.685 -7.536,12.425 -7.536,12.425l-14.055,-1.223c0,0 11.203,-14.258 11.813,-16.906c0.611,-2.647 -5.703,-22.812 -5.703,-22.812l11,-36.665z" id="svg_92"/>
    <path opacity="0.4" enable-background="new    " d="m280.46893,57.708c2.852,6.313 6.314,9.165 11.813,10.999c3.259,1.222 16.091,2.852 21.184,-2.852c2.24,-2.648 0.814,-9.777 0.814,-9.777l-11.61,9.369l-15.684,-2.851l-1.833,-4.685l-4.684,-0.203z" id="svg_93"/>
    <path fill="#88CE02" stroke="#000000" stroke-width="1.586" stroke-linejoin="round" stroke-miterlimit="10" d="m281.68993,71.762c5.296,3.463 18.536,6.722 22.202,7.333c3.666,0.814 9.573,-3.87 12.425,-5.092c3.056,-1.426 8.352,-2.241 14.462,3.259c0.611,0.611 -1.426,3.259 -1.426,3.259c-0.204,-0.204 -1.426,-0.204 -3.056,-1.019c-1.629,-0.814 -3.055,-1.426 -5.499,-1.222c-10.185,1.222 -11.814,4.685 -20.776,2.647s-11.203,-3.666 -19.961,-3.259" id="svg_94"/>
    <path fill="#88CE02" d="m279.85693,72.373c6.722,2.852 19.758,5.907 23.424,6.722s9.573,-2.852 12.425,-4.685c5.093,-3.259 11.61,-0.611 14.666,2.852c2.036,2.24 2.852,3.666 2.852,4.277c0,0.814 -2.444,0 -2.444,0c-1.426,-0.611 -3.056,-0.814 -4.277,-1.63c-1.63,-0.814 -3.26,-2.036 -5.703,-1.833c-10.185,1.223 -12.222,4.685 -20.98,2.648c-8.758,-2.037 -10.999,-3.87 -20.368,-3.26" id="svg_95"/>
    <path d="m248.28593,262.616c-0.407,-0.407 0.407,-0.814 0,-0.814c-2.647,0 -6.314,-2.037 -8.352,-4.889c-8.758,-12.628 -21.591,-20.979 -44.811,-20.368c-34.831,0.814 -48.682,-13.443 -51.329,-40.737c-1.426,-14.869 -5.5,-29.331 -13.851,-37.479l-4.889,3.056c9.369,8.147 12.425,21.387 14.462,39.515c3.259,27.294 25.257,39.923 50.922,40.33c26.683,0.407 36.256,5.907 46.236,19.351c3.259,4.277 6.926,5.703 9.777,6.314l1.835,-4.279z" id="svg_96"/>
    <path opacity="0.4" enable-background="new    " d="m342.79693,131.646c0.611,3.055 2.24,8.962 5.499,11.813c1.427,1.426 1.63,1.833 0.408,1.833c-1.223,0 -10.185,-0.407 -10.185,-0.407l-2.444,-4.277l6.722,-8.962z" id="svg_97"/>
   </g>
  </g>
 </g>

</svg>